<?xml version="1.0" encoding="UTF-8"?>
<!DOCTYPE svg PUBLIC "-//W3C//DTD SVG 1.1//EN" "http://www.w3.org/Graphics/SVG/1.1/DTD/svg11.dtd">
<!-- Creator: CorelDRAW -->
<svg xmlns="http://www.w3.org/2000/svg" xml:space="preserve" width="3.2cm" height="3.27884cm" version="1.1" style="shape-rendering:geometricPrecision; text-rendering:geometricPrecision; image-rendering:optimizeQuality; fill-rule:evenodd; clip-rule:evenodd"
viewBox="0 0 33.08 33.9"
 xmlns:xlink="http://www.w3.org/1999/xlink"
 xmlns:xodm="http://www.corel.com/coreldraw/odm/2003">
 <defs>
  <style type="text/css">
   <![CDATA[
    .fil0 {fill:#151a12}
   ]]>
  </style>
 </defs>
 <g id="Camada_x0020_1">
  <metadata id="CorelCorpID_0Corel-Layer"/>
  <g>
   <path class="fil0" d="M18.61 22.49l0.54 0 -0.54 0zm4.81 0l0.9 0 -0.9 0zm4.45 -8.24l0.03 0.02 0 0c2.57,1.31 5.19,3.88 5.19,7.93 0,5.88 -4.59,9.51 -10.12,8.92l-0.03 -0c-0.47,-0.04 -0.93,-0.12 -1.38,-0.23 -0.24,-0.04 -0.48,-0.09 -0.71,-0.15l-0 -0 -0 -0 -0.01 -0c-0.56,0.67 -1.23,1.27 -1.99,1.74 -2.38,1.46 -5.78,1.62 -8.23,1.26l-0.32 -0.05 -0.03 -0.01c-5.42,-0.8 -10.24,-4.57 -10.24,-11.09 0,-6.11 4.79,-10.73 10.89,-10.98l0.05 -0 0 0 0.05 -0 0.05 -0 0.01 0 0.01 0 0.01 -0 0.01 0 0.01 0 0.02 -0 0 0 0.01 0c0.21,-0.01 0.43,-0.01 0.67,-0l0.01 0 0 0 0.01 0 0.01 0 0 -3.92c-0.04,-2.53 -1.27,-4.82 -3.2,-6.27l-0.73 -0.56 -0.01 -0.01c-0.1,-0.09 -0.16,-0.22 -0.16,-0.36 0,-0.26 0.21,-0.48 0.48,-0.48 0.1,0 0.2,0.03 0.28,0.09l0 0 0.26 0.21c0.19,0.16 0.38,0.31 0.58,0.45l0 0 0 -0 0.07 0.05c0.73,0.51 1.54,0.9 2.43,1.14l0 -0c0.43,0.12 0.87,0.2 1.33,0.25 0.28,0.03 0.55,0.04 0.82,0.04 0.82,-0.04 1.62,-0.11 2.49,-0.41 0.87,-0.3 1.8,-0.87 2.94,-1.22 1.86,-0.58 3.89,-0.53 5.77,-0.03 3.56,0.95 6.19,3.58 5.77,7.71 -0.3,2.9 -2.15,4.43 -4,5.45l-0.01 0 -0.09 0.05c0.37,0.13 0.72,0.29 1.06,0.47zm-15.69 10.6c0.53,-0.02 1.08,0 1.65,0.14 0.64,0.16 1.31,0.45 2.06,0.98 0.23,0.17 0.47,0.36 0.72,0.56l0 -7.64c-0.01,-0 -0.02,-0 -0.03,-0 -0.54,0 -0.98,0.44 -0.98,0.98l0 0.53 -3.8 3.16 0 -10.33c-3.44,1.53 -6.09,5.54 -6.09,9.35 0,5.3 4.33,9.98 9.63,9.98l0.23 -0 0 0 0.01 -0 0 0 0.01 -0 0.01 0 0.01 -0 0.01 0 0 -0 0.01 0 0.02 -0 0 0 0.01 -0 0 0 0 -0 0 0 0.01 -0 0.01 0 0 -0 0.01 0 0 -0 0.01 0 0.01 -0 0.01 0 0 -0 0.02 -0 0 0 0.01 -0 0 0 0.03 -0 0.01 0 0 -0 0.01 0 0 -0 0.01 0 0 -0 0.01 -0 0 0 0.01 -0 0 0 0.01 -0 0 0 0.01 -0 0.01 -0 0.01 -0 0.01 -0 0.01 -0 0.01 -0 0 -0 0.01 -0 0 -0 0.01 -0 0 -0 0.01 -0 0.01 -0 0 0 0.01 -0 0 0 0.01 -0 0 -0 0.01 -0 0.01 -0 0.01 -0 0.01 -0 0.02 -0 0 -0 0.01 -0 0 -0 0.04 -0.01 0 -0 0.04 -0.01 0 0c0.19,-0.03 0.38,-0.08 0.57,-0.13l0.12 -0.03 0 -0 0.01 -0c0.36,-0.1 0.71,-0.23 1.04,-0.39 0.75,-0.38 1.41,-0.92 1.93,-1.57 -0.04,-0.02 -0.09,-0.04 -0.13,-0.06 -1.11,-0.54 -2.14,-1.49 -3.05,-2.31l-0.15 -0.14c-0.46,-0.41 -0.87,-0.79 -1.28,-1.09 -0.39,-0.3 -0.79,-0.54 -1.22,-0.7 -0.41,-0.16 -0.86,-0.25 -1.31,-0.29 -0.49,-0.04 -0.97,-0.02 -1.4,0.06 -0.83,0.16 -1.5,0.54 -2.17,0.92 -0.07,0.04 -0.15,0.06 -0.23,0.06l-0.01 -0c-0.16,-0 -0.32,-0.1 -0.39,-0.25 -0.07,-0.15 -0.06,-0.32 0.03,-0.45l0 -0c0.04,-0.06 0.09,-0.11 0.15,-0.14 0.74,-0.42 1.47,-0.84 2.45,-1.02 0.33,-0.06 0.69,-0.1 1.05,-0.1zm5.38 2.49c0.25,0.21 0.49,0.42 0.74,0.61 0.74,0.6 1.47,1.09 2.2,1.37 0.37,-0.76 0.58,-1.62 0.58,-2.52 0,-1.71 -0.75,-3.25 -1.93,-4.31l4.27 0c0.07,0.47 0.1,0.95 0.1,1.43 0,2.11 -0.66,4.07 -1.79,5.68 0.13,0.01 0.25,0.01 0.38,0.01 0.36,-0 0.71,-0.05 1.06,-0.14 3.01,-0.81 4.54,-4.9 4.54,-7.27 0,-0.05 -0,-0.09 -0,-0.14 0,-0.04 0,-0.08 0,-0.13 0,-3.34 -1.95,-6.67 -5.03,-7.87l-0.15 -0.06 -0 -0 -0.15 -0.05 -0 -0 -0.04 -0.01 -0.01 -0c-0.94,-0.26 -1.98,-0.61 -3.19,-0.87 -0.5,-0.11 -1.04,-0.2 -1.58,-0.28l0 14.54zm-1.97 -9.92l0 -4.78c0.34,0.01 0.68,0.03 1.02,0.05l0 5.71c-0.01,0 -0.02,0 -0.03,0 -0.54,0 -0.98,-0.44 -0.98,-0.98zm0 -5.47l0 -8.23c0.32,-0.05 0.64,-0.13 0.97,-0.24l0.05 -0.02 0 8.64c-0.34,-0.05 -0.68,-0.1 -1.02,-0.14zm1.97 0.28l0 -9.18c0.59,-0.27 1.22,-0.58 1.94,-0.8 0.79,-0.25 1.6,-0.44 2.45,-0.37l0.2 0.03c2.63,0.39 4.45,3.2 4.17,5.9 -0.3,2.91 -2.5,5.21 -5.64,4.89l-0.03 -0 -0 0 -0.03 -0 -0.03 -0 -0.03 -0 -0.03 -0 -0.06 -0.01 -0.03 -0 -0.03 -0 -0.03 -0 -0.03 -0 -0.01 -0 -0.03 -0 -0.01 -0 -0 0c-0.24,-0.03 -0.51,-0.08 -0.83,-0.13 -0.52,-0.08 -1.19,-0.19 -1.9,-0.3z"/>
  </g>
 </g>
</svg>
