<?xml version="1.0" encoding="UTF-8"?>
<!DOCTYPE svg PUBLIC "-//W3C//DTD SVG 1.1//EN" "http://www.w3.org/Graphics/SVG/1.1/DTD/svg11.dtd">
<!-- Creator: CorelDRAW -->
<svg xmlns="http://www.w3.org/2000/svg" xml:space="preserve" width="4.3057mm" height="4.5653mm" version="1.1" style="shape-rendering:geometricPrecision; text-rendering:geometricPrecision; image-rendering:optimizeQuality; fill-rule:evenodd; clip-rule:evenodd"
viewBox="0 0 3.09 3.27"
 xmlns:xlink="http://www.w3.org/1999/xlink"
 xmlns:xodm="http://www.corel.com/coreldraw/odm/2003">
 <defs>
  <style type="text/css">
   <![CDATA[
    .fil0 {fill:#AD8F8F;fill-rule:nonzero}
   ]]>
  </style>
 </defs>
 <g id="Camada_x0020_1">
  <metadata id="CorelCorpID_0Corel-Layer"/>
  <path class="fil0" d="M2.26 0.27c-0.09,-0.14 -0.2,-0.27 -0.38,-0.27 -0.21,0 -0.28,0.22 -0.31,0.39 -0.04,0.2 -0.04,0.42 -0.02,0.63 0.03,0.39 0.13,0.78 0.31,1.13l-0.24 0.6 -0.61 -1.47c-0.12,-0.29 -0.08,-0.57 -0.03,-0.69l0 -0.02 -0.99 0 0 0.02c0.11,0.12 0.28,0.41 0.41,0.7l0.83 1.98 0.4 0 0.36 -0.9c0.09,0.13 0.2,0.26 0.35,0.29 0.17,0.04 0.31,-0.05 0.4,-0.18 0.12,-0.17 0.17,-0.4 0.22,-0.6 0.06,-0.24 0.1,-0.48 0.11,-0.72 0,-0.08 -0.21,-0.1 -0.21,-0.02 -0.02,0.32 -0.07,0.64 -0.17,0.94 -0.05,0.14 -0.1,0.31 -0.21,0.42 -0.07,0.06 -0.11,0.06 -0.17,-0.01 -0.06,-0.06 -0.12,-0.14 -0.17,-0.22 -0.02,-0.04 -0.05,-0.08 -0.07,-0.12 0.29,-0.73 0.5,-1.36 0.18,-1.88zm-0.3 1.62c-0.07,-0.18 -0.12,-0.38 -0.16,-0.57 -0.06,-0.31 -0.09,-0.68 -0,-0.99 0.01,-0.05 0.03,-0.09 0.05,-0.14 0.01,-0.01 0.02,-0.04 0.03,-0.05 0.02,-0.02 0.02,-0.02 0.05,0 0.07,0.05 0.11,0.13 0.15,0.2 0.26,0.45 0.11,0.95 -0.12,1.55z"/>
 </g>
</svg>
