<?xml version="1.0" encoding="UTF-8"?>
<!DOCTYPE svg PUBLIC "-//W3C//DTD SVG 1.1//EN" "http://www.w3.org/Graphics/SVG/1.1/DTD/svg11.dtd">
<!-- Creator: CorelDRAW -->
<svg xmlns="http://www.w3.org/2000/svg" xml:space="preserve" width="3.2cm" height="3.27884cm" version="1.1" style="shape-rendering:geometricPrecision; text-rendering:geometricPrecision; image-rendering:optimizeQuality; fill-rule:evenodd; clip-rule:evenodd"
viewBox="0 0 34.2 35.04"
 xmlns:xlink="http://www.w3.org/1999/xlink"
 xmlns:xodm="http://www.corel.com/coreldraw/odm/2003">
 <defs>
  <style type="text/css">
   <![CDATA[
    .fil0 {fill:#AD8F8F}
   ]]>
  </style>
 </defs>
 <g id="Camada_x0020_1">
  <metadata id="CorelCorpID_0Corel-Layer"/>
  <g>
   <path class="fil0" d="M19.23 23.24l0.55 0 -0.55 0zm4.97 0l0.93 0 -0.93 0zm4.6 -8.51l0.03 0.02 0 0c2.66,1.35 5.36,4.01 5.36,8.2 0,6.07 -4.74,9.83 -10.46,9.22l-0.04 -0c-0.49,-0.04 -0.97,-0.12 -1.43,-0.24 -0.25,-0.04 -0.49,-0.09 -0.74,-0.16l-0 -0 -0 -0 -0.01 -0c-0.58,0.69 -1.27,1.32 -2.06,1.8 -2.47,1.51 -5.98,1.67 -8.51,1.3l-0.34 -0.05 -0.03 -0.01c-5.6,-0.83 -10.58,-4.72 -10.58,-11.46 0,-6.32 4.95,-11.09 11.26,-11.35l0.05 -0 0 0 0.05 -0 0.05 -0 0.01 0 0.01 0 0.01 -0 0.01 0 0.01 0 0.02 -0 0 0 0.01 0c0.21,-0.01 0.44,-0.01 0.69,-0l0.01 0 0 0 0.01 0 0.01 0 0 -4.05c-0.04,-2.61 -1.31,-4.98 -3.3,-6.48l-0.75 -0.58 -0.01 -0.01c-0.1,-0.09 -0.17,-0.22 -0.17,-0.37 0,-0.27 0.22,-0.49 0.49,-0.49 0.11,0 0.21,0.03 0.29,0.09l0 0 0.27 0.21c0.19,0.17 0.39,0.32 0.6,0.47l0 0 0 -0 0.07 0.05c0.75,0.52 1.6,0.93 2.51,1.18l0 -0c0.44,0.12 0.9,0.21 1.37,0.26 0.28,0.03 0.57,0.04 0.85,0.04 0.85,-0.04 1.67,-0.11 2.57,-0.42 0.9,-0.31 1.86,-0.9 3.04,-1.27 1.92,-0.6 4.03,-0.55 5.96,-0.03 3.68,0.99 6.4,3.7 5.96,7.97 -0.31,3 -2.23,4.58 -4.14,5.63l-0.01 0 -0.09 0.05c0.38,0.14 0.74,0.3 1.1,0.48zm-16.21 10.95c0.54,-0.03 1.11,0 1.7,0.15 0.66,0.16 1.35,0.46 2.13,1.02 0.24,0.17 0.49,0.37 0.75,0.58l0 -7.9c-0.01,-0 -0.02,-0 -0.04,-0 -0.56,0 -1.02,0.45 -1.02,1.02l0 0.55 -3.92 3.27 0 -10.68c-3.56,1.58 -6.29,5.73 -6.29,9.67 0,5.48 4.48,10.32 9.96,10.32l0.24 -0 0 0 0.01 -0 0 0 0.01 -0 0.01 0 0.01 -0 0.01 0 0 -0 0.01 0 0.02 -0 0 0 0.01 -0 0 0 0 -0 0 0 0.01 -0 0.01 0 0 -0 0.01 0 0 -0 0.01 0 0.01 -0 0.01 0 0 -0 0.02 -0 0 0 0.01 -0 0 0 0.03 -0 0.01 0 0 -0 0.01 0 0 -0 0.01 0 0 -0 0.02 -0 0 0 0.01 -0 0 0 0.01 -0 0 0 0.01 -0 0.01 -0 0.01 -0 0.01 -0 0.01 -0 0.01 -0 0 -0 0.01 -0 0 -0 0.01 -0 0 -0 0.01 -0 0.02 -0 0 0 0.01 -0 0 0 0.01 -0 0 -0 0.01 -0 0.01 -0 0.01 -0 0.01 -0 0.03 -0 0 -0 0.01 -0 0 -0 0.05 -0.01 0 -0 0.05 -0.01 0 0c0.2,-0.04 0.39,-0.08 0.58,-0.13l0.12 -0.03 0 -0 0.01 -0c0.38,-0.11 0.73,-0.24 1.07,-0.4 0.78,-0.39 1.46,-0.95 1.99,-1.63 -0.05,-0.02 -0.09,-0.04 -0.14,-0.06 -1.15,-0.56 -2.21,-1.54 -3.15,-2.39l-0.16 -0.14c-0.47,-0.43 -0.9,-0.82 -1.32,-1.13 -0.41,-0.31 -0.82,-0.56 -1.26,-0.73 -0.42,-0.17 -0.89,-0.26 -1.36,-0.3 -0.5,-0.04 -1,-0.02 -1.45,0.07 -0.86,0.16 -1.55,0.56 -2.25,0.95 -0.07,0.04 -0.16,0.06 -0.24,0.06l-0.01 -0c-0.17,-0 -0.33,-0.1 -0.41,-0.26 -0.08,-0.15 -0.06,-0.33 0.03,-0.47l0 -0c0.04,-0.06 0.09,-0.11 0.16,-0.15 0.76,-0.43 1.52,-0.86 2.54,-1.05 0.34,-0.07 0.71,-0.1 1.09,-0.1zm5.56 2.57c0.25,0.22 0.51,0.43 0.76,0.63 0.77,0.62 1.52,1.12 2.28,1.42 0.38,-0.79 0.6,-1.67 0.6,-2.61 0,-1.77 -0.77,-3.36 -2,-4.46l4.41 0c0.07,0.48 0.11,0.98 0.11,1.48 0,2.19 -0.68,4.21 -1.85,5.87 0.13,0.01 0.26,0.01 0.39,0.01 0.37,-0 0.74,-0.06 1.1,-0.15 3.11,-0.83 4.69,-5.07 4.69,-7.51 0,-0.05 -0,-0.09 -0,-0.14 0,-0.04 0,-0.09 0,-0.13 0,-3.45 -2.02,-6.89 -5.2,-8.14l-0.15 -0.06 -0 -0 -0.16 -0.05 -0 -0 -0.05 -0.01 -0.01 -0c-0.97,-0.27 -2.05,-0.63 -3.3,-0.9 -0.52,-0.11 -1.07,-0.21 -1.63,-0.29l0 15.03zm-2.03 -10.26l0 -4.94c0.35,0.01 0.7,0.03 1.05,0.06l0 5.9c-0.01,0 -0.02,0 -0.04,0 -0.56,0 -1.02,-0.45 -1.02,-1.02zm0 -5.65l0 -8.51c0.33,-0.05 0.66,-0.13 1,-0.25l0.05 -0.02 0 8.93c-0.35,-0.05 -0.7,-0.1 -1.05,-0.15zm2.03 0.29l0 -9.49c0.61,-0.28 1.26,-0.6 2,-0.83 0.82,-0.25 1.65,-0.45 2.53,-0.38l0.21 0.03c2.72,0.41 4.6,3.31 4.32,6.1 -0.31,3 -2.59,5.39 -5.83,5.06l-0.03 -0 -0 0 -0.03 -0 -0.03 -0 -0.03 -0 -0.03 -0 -0.06 -0.01 -0.03 -0 -0.03 -0 -0.03 -0 -0.03 -0 -0.01 -0 -0.04 -0 -0.01 -0 -0 0c-0.24,-0.04 -0.52,-0.08 -0.86,-0.13 -0.54,-0.09 -1.23,-0.19 -1.97,-0.31z"/>
  </g>
 </g>
</svg>
