<?xml version="1.0" encoding="UTF-8"?>
<!DOCTYPE svg PUBLIC "-//W3C//DTD SVG 1.1//EN" "http://www.w3.org/Graphics/SVG/1.1/DTD/svg11.dtd">
<!-- Creator: CorelDRAW -->
<svg xmlns="http://www.w3.org/2000/svg" xml:space="preserve" width="193.991mm" height="17.7249mm" version="1.1" style="shape-rendering:geometricPrecision; text-rendering:geometricPrecision; image-rendering:optimizeQuality; fill-rule:evenodd; clip-rule:evenodd"
viewBox="0 0 24564.95 2244.49"
 xmlns:xlink="http://www.w3.org/1999/xlink"
 xmlns:xodm="http://www.corel.com/coreldraw/odm/2003">
 <defs>
  <style type="text/css">
   <![CDATA[
    .fil0 {fill:#F6F6F6}
   ]]>
  </style>
 </defs>
 <g id="Camada_x0020_1">
  <metadata id="CorelCorpID_0Corel-Layer"/>
  <path class="fil0" d="M358.11 372.58c-238.73,249.6 -358.11,571.53 -358.11,969.43 0,361.72 100.48,662.54 301.4,902.47l581.14 0c-14.71,-21.11 -29.16,-43.4 -43.33,-66.89 -141.08,-227.88 -209.8,-506.42 -209.8,-839.21 0,-332.78 68.72,-611.31 202.57,-839.21 133.83,-224.26 300.24,-336.4 491.95,-336.4 242.36,0 510.04,217.04 795.8,647.49l21.69 0 0 -654.72c-350.86,-104.9 -643.87,-155.55 -875.37,-155.55 -365.35,0 -669.2,122.99 -907.94,372.58zm1783.32 1871.91l0 -377.96 -21.69 0c-102.33,152.87 -201.13,278.77 -296.4,377.96l318.09 0zm604.63 0c-0.35,-11.54 -0.53,-22.97 -0.53,-34.33 0,-97.67 14.47,-191.72 43.41,-274.91l61.49 -177.24 940.49 0 108.52 285.76c27.62,74.2 40.41,143.46 46.23,200.72l636.68 0c-26.58,-61.77 -52.86,-127.49 -78.83,-197.11l-756.01 -2011.2 -658.34 0 0 10.85c43.41,108.52 65.11,206.18 65.11,289.39 0,50.64 -7.23,97.66 -21.7,141.06l-506.42 1403.51c-48.04,133.64 -94.86,254.8 -140.15,363.5l260.06 0zm563.77 -1774.24l423.22 1124.97 -824.74 0 401.52 -1124.97zm1584.36 303.85c0,372.58 285.76,600.48 777.72,774.11 466.63,173.62 698.13,314.7 698.13,589.61 0,38.1 -4.88,73.71 -13.98,106.67l448.52 0c50.5,-98.85 75.5,-213.1 75.5,-341.8 0,-361.73 -245.96,-643.87 -737.92,-846.44 -220.65,-86.82 -365.35,-148.31 -437.69,-184.49 -209.8,-108.51 -314.7,-231.5 -314.7,-368.96 0,-184.49 159.16,-340.02 401.52,-340.02 75.96,0 151.93,14.47 238.75,54.26 83.2,39.79 137.44,61.49 227.88,130.23 86.82,68.72 126.6,90.43 217.04,177.24 47.02,43.41 79.57,72.34 97.66,90.43 18.1,18.1 50.64,47.03 97.67,94.06l83.2 83.2 18.1 0 0 -589.62c-343.65,-133.83 -643.88,-202.57 -900.71,-202.57 -303.85,0 -542.59,75.96 -716.21,227.89 -173.63,151.93 -260.45,332.79 -260.45,546.2zm469.78 1470.39c-99.62,-83.85 -236.33,-214.66 -408.28,-392.44l-25.33 0 0 392.44 433.6 0zm2004.97 0c-0.35,-11.54 -0.53,-22.97 -0.53,-34.33 0,-97.67 14.47,-191.72 43.41,-274.91l61.5 -177.24 940.49 0 108.52 285.76c27.61,74.2 40.38,143.46 46.22,200.72l636.68 0c-26.57,-61.77 -52.84,-127.49 -78.81,-197.11l-756.01 -2011.2 -658.34 0 0 10.85c43.41,108.52 65.11,206.18 65.11,289.39 0,50.64 -7.23,97.66 -21.7,141.06l-506.42 1403.51c-48.04,133.64 -94.86,254.8 -140.15,363.5l260.05 0zm563.77 -1774.24l423.22 1124.97 -824.74 0 401.52 -1124.97zm2438.05 -368.96c28.93,97.67 83.2,311.09 83.2,506.42l0 1461.39c0,58.03 -4.8,117.68 -12.3,175.39l572.97 0 0 -844.59 376.2 0c332.78,0 517.27,227.88 517.27,557.05 0,114.32 -18.46,210.2 -55.2,287.54l574.55 0c42,-82.68 63.02,-177.17 63.02,-283.92 0,-329.17 -217.03,-549.84 -647.49,-654.74 350.88,-115.75 528.12,-314.7 528.12,-596.84 0,-191.72 -75.96,-350.88 -231.5,-481.1 -155.54,-126.6 -354.49,-191.72 -596.85,-191.72l-1186.46 0 0 14.47 14.47 50.64zm643.87 1143.06l0 -1052.63 336.4 0c137.46,0 242.37,50.65 318.32,155.55 75.96,104.9 112.14,227.88 112.14,361.73 0,141.06 -39.79,267.67 -115.75,372.58 -79.59,108.51 -188.11,162.77 -325.56,162.77l-325.55 0zm1674.8 -1208.17l0 14.47 14.47 50.64c28.93,97.67 83.2,311.09 83.2,506.42l0 1461.39c0,58.03 -4.8,117.68 -12.3,175.39l572.97 0 0 -1636.78c0,-245.98 94.06,-513.66 94.06,-557.05l0 -14.47 -752.41 0zm1786.94 2208.31l0 -291.16 -18.08 0c-3.62,3.62 -47.03,50.65 -126.6,144.7 -43.85,51.47 -90.73,99.95 -140.62,146.46l285.31 0zm141.08 -2208.31l0 14.47c0,43.4 94.05,311.08 94.05,557.05l0 980.29c0,263.48 60.36,488.38 162.79,656.5l568.06 0c-109.74,-133.4 -170.18,-334.38 -170.18,-598.63l0 -1038.16c0,-245.98 94.05,-513.66 94.05,-557.05l0 -14.47 -748.77 0zm1949.18 2208.31c79.93,-149.18 119.91,-336.66 119.91,-562.45l0 -824.74c0,-104.91 14.47,-217.04 39.79,-336.42 25.33,-119.37 57.88,-224.27 90.44,-321.93 32.56,-94.05 47.02,-141.08 47.02,-144.7l0 -18.08 -524.5 0 0 18.08c3.61,10.85 57.87,166.4 97.66,293.01 39.8,130.21 79.59,347.26 79.59,510.04l0 813.88c0,254.11 -63.76,445.34 -174.27,573.3l224.37 0zm904.77 0c-35.91,-140.94 -61.4,-291.46 -61.4,-424.99l0 -1211.79c0,-43.41 0,-75.96 3.61,-94.05l685.86 1730.83 506.33 0 645.4 -1741.68 0 1566.29c0,58.03 -4.8,117.68 -12.3,175.39l582.72 0c-8.07,-57.49 -13.37,-117.06 -13.37,-175.39l0 -1461.39c0,-245.98 94.05,-513.66 94.05,-557.05l0 -14.47 -651.1 0 -701.75 1873.74 -752.41 -1873.74 -694.51 0 0 14.47c0,10.84 47.02,115.75 79.57,202.56 28.93,90.44 65.11,242.37 65.11,354.5l0 1211.79c0,133.53 -25.49,284.05 -61.4,424.99l285.59 0zm2691.35 -2208.31l0 14.47c0,43.4 94.05,311.08 94.05,557.05l0 980.29c0,263.48 60.36,488.38 162.79,656.5l568.06 0c-109.74,-133.4 -170.18,-334.38 -170.18,-598.63l0 -1038.16c0,-245.98 94.05,-513.66 94.05,-557.05l0 -14.47 -748.77 0zm1949.18 2208.31c79.93,-149.18 119.91,-336.66 119.91,-562.45l0 -824.74c0,-104.91 14.47,-217.04 39.79,-336.42 25.33,-119.37 57.88,-224.27 90.44,-321.93 32.56,-94.05 47.02,-141.08 47.02,-144.7l0 -18.08 -524.5 0 0 18.08c3.61,10.85 57.87,166.4 97.66,293.01 39.8,130.21 79.59,347.26 79.59,510.04l0 813.88c0,254.11 -63.76,445.34 -174.27,573.3l224.37 0zm467.16 -1470.39c0,372.58 285.76,600.48 777.72,774.11 466.63,173.62 698.13,314.7 698.13,589.61 0,38.1 -4.88,73.71 -13.98,106.67l448.52 0c50.5,-98.85 75.5,-213.1 75.5,-341.8 0,-361.73 -245.98,-643.87 -737.92,-846.44 -220.66,-86.82 -365.35,-148.31 -437.69,-184.49 -209.8,-108.51 -314.71,-231.5 -314.71,-368.96 0,-184.49 159.17,-340.02 401.53,-340.02 75.96,0 151.92,14.47 238.73,54.26 83.2,39.79 137.46,61.49 227.89,130.23 86.82,68.72 126.6,90.43 217.03,177.24 47.03,43.41 79.59,72.34 97.67,90.43 18.08,18.1 50.64,47.03 97.67,94.06l83.2 83.2 18.08 0 0 -589.62c-343.63,-133.83 -643.87,-202.57 -900.7,-202.57 -303.85,0 -542.59,75.96 -716.21,227.89 -173.63,151.93 -260.45,332.79 -260.45,546.2zm469.78 1470.39c-99.62,-83.85 -236.34,-214.66 -408.29,-392.44l-25.31 0 0 392.44 433.6 0z"/>
 </g>
</svg>
