<?xml version="1.0" encoding="UTF-8"?>
<!DOCTYPE svg PUBLIC "-//W3C//DTD SVG 1.1//EN" "http://www.w3.org/Graphics/SVG/1.1/DTD/svg11.dtd">
<!-- Creator: CorelDRAW -->
<svg xmlns="http://www.w3.org/2000/svg" xml:space="preserve" width="6.7412mm" height="7.7783mm" version="1.1" style="shape-rendering:geometricPrecision; text-rendering:geometricPrecision; image-rendering:optimizeQuality; fill-rule:evenodd; clip-rule:evenodd"
viewBox="0 0 7.14 8.23"
 xmlns:xlink="http://www.w3.org/1999/xlink"
 xmlns:xodm="http://www.corel.com/coreldraw/odm/2003">
 <defs>
  <style type="text/css">
   <![CDATA[
    .fil0 {fill:#2B3A25;fill-rule:nonzero}
   ]]>
  </style>
 </defs>
 <g id="Camada_x0020_1">
  <metadata id="CorelCorpID_0Corel-Layer"/>
  <path class="fil0" d="M0.64 8.23c0.18,-0.64 0.49,-1.59 0.88,-2.9 0.82,-2.56 1.34,-4.36 1.49,-5.34l-2.96 0c-0.03,0.98 -0.06,1.71 -0.06,2.23 0,0.52 0.03,1.49 0.09,2.96 0.03,1.49 0.06,2.5 0.09,3.05l0.46 0zm4.12 0c0.18,-0.64 0.49,-1.59 0.88,-2.9 0.82,-2.56 1.34,-4.36 1.49,-5.34l-2.96 0c-0.06,0.95 -0.09,1.71 -0.06,2.23 0,0.52 0.03,1.52 0.09,2.96 0.03,1.46 0.06,2.47 0.09,3.05l0.46 0z"/>
 </g>
</svg>
