<?xml version="1.0" encoding="UTF-8"?>
<!DOCTYPE svg PUBLIC "-//W3C//DTD SVG 1.1//EN" "http://www.w3.org/Graphics/SVG/1.1/DTD/svg11.dtd">
<!-- Creator: CorelDRAW -->
<svg xmlns="http://www.w3.org/2000/svg" xml:space="preserve" width="4.3056mm" height="4.5652mm" version="1.1" style="shape-rendering:geometricPrecision; text-rendering:geometricPrecision; image-rendering:optimizeQuality; fill-rule:evenodd; clip-rule:evenodd"
viewBox="0 0 430.56 456.52"
 xmlns:xlink="http://www.w3.org/1999/xlink"
 xmlns:xodm="http://www.corel.com/coreldraw/odm/2003">
 <defs>
  <style type="text/css">
   <![CDATA[
    .fil0 {fill:#E3DFD3;fill-rule:nonzero}
   ]]>
  </style>
 </defs>
 <g id="Camada_x0020_1">
  <metadata id="CorelCorpID_0Corel-Layer"/>
  <path class="fil0" d="M315.38 37.15c-12.05,-19.31 -27.98,-37.42 -52.63,-37.15 -29.09,0.36 -38.7,30.21 -43.57,54.19 -5.81,28.49 -4.97,58.5 -2.43,87.29 4.74,53.81 18.25,109.19 43.39,157.57l-33.34 84.14 -85.43 -204.88c-16.63,-40.06 -10.58,-80.13 -3.78,-96.01l0 -2.27 -137.59 0 0 2.27c15.12,16.63 39.31,56.7 57.45,98.28l115.67 275.94 55.19 0 50.19 -126.26c12.11,18.25 27.69,36.19 48.95,40.82 23.48,5.17 43.65,-6.61 56.49,-25.75 16.24,-24.11 24.26,-56.22 31.4,-84.08 8.49,-32.96 13.42,-66.69 15.21,-100.64 0.64,-11.65 -29.23,-14.18 -29.87,-2.75 -2.35,44.79 -10.29,89.13 -24.25,131.81 -6.47,19.75 -13.35,43.33 -28.72,58.31 -9.18,8.97 -15.19,7.88 -24.02,-1.08 -8.92,-8.98 -16.56,-19.49 -23.3,-30.18 -3.46,-5.5 -6.72,-11.14 -9.8,-16.9 40.46,-101.79 70.21,-189.85 24.79,-262.67zm-41.25 226.61c-10.01,-25.78 -17.13,-52.85 -22.07,-79.47 -8.14,-43.95 -12.87,-94.68 -0.41,-138.26 1.87,-6.53 4.14,-13.06 7.35,-19.1 1.08,-2.05 2.74,-5.63 4.37,-7.22 3.41,-3.29 2.99,-2.89 6.93,0.03 9.09,6.76 15.43,18.08 20.95,27.57 36.41,62.56 15.96,132.97 -17.12,216.45z"/>
 </g>
</svg>
