<?xml version="1.0" encoding="UTF-8"?>
<!DOCTYPE svg PUBLIC "-//W3C//DTD SVG 1.1//EN" "http://www.w3.org/Graphics/SVG/1.1/DTD/svg11.dtd">
<!-- Creator: CorelDRAW -->
<svg xmlns="http://www.w3.org/2000/svg" xml:space="preserve" width="1.26653cm" height="0.4203cm" version="1.1" style="shape-rendering:geometricPrecision; text-rendering:geometricPrecision; image-rendering:optimizeQuality; fill-rule:evenodd; clip-rule:evenodd"
viewBox="0 0 22.12 7.34"
 xmlns:xlink="http://www.w3.org/1999/xlink"
 xmlns:xodm="http://www.corel.com/coreldraw/odm/2003">
 <defs>
  <style type="text/css">
   <![CDATA[
    .fil1 {fill:#F6F6F6}
    .fil0 {fill:#F6F6F6;fill-rule:nonzero}
   ]]>
  </style>
 </defs>
 <g id="Camada_x0020_1">
  <metadata id="CorelCorpID_0Corel-Layer"/>
  <polygon class="fil0" points="0.62,3.28 0.18,3.28 0.18,3.62 0.57,3.62 0.57,3.77 0.18,3.77 0.18,4.12 0.62,4.12 0.62,4.27 -0,4.27 -0,3.14 0.62,3.14 "/>
  <path id="_1" class="fil0" d="M1.47 4.28c-0.08,0 -0.14,-0.01 -0.2,-0.04 -0.06,-0.03 -0.11,-0.07 -0.14,-0.12 -0.04,-0.05 -0.06,-0.11 -0.07,-0.17l0.19 -0.03c0.01,0.07 0.04,0.12 0.08,0.16 0.04,0.04 0.09,0.06 0.15,0.06 0.07,0 0.12,-0.02 0.15,-0.05 0.04,-0.03 0.05,-0.07 0.05,-0.12 0,-0.04 -0.01,-0.07 -0.03,-0.09 -0.02,-0.02 -0.05,-0.04 -0.09,-0.06 -0.04,-0.01 -0.08,-0.03 -0.12,-0.04 -0.04,-0.01 -0.09,-0.02 -0.13,-0.04 -0.04,-0.01 -0.08,-0.03 -0.12,-0.05 -0.04,-0.02 -0.06,-0.05 -0.09,-0.09 -0.02,-0.04 -0.03,-0.09 -0.03,-0.15 0,-0.07 0.02,-0.12 0.05,-0.17 0.03,-0.05 0.08,-0.09 0.14,-0.11 0.06,-0.03 0.13,-0.04 0.2,-0.04 0.07,0 0.13,0.01 0.18,0.04 0.06,0.03 0.1,0.06 0.13,0.1 0.03,0.04 0.06,0.09 0.06,0.14l-0.18 0.05c-0.01,-0.06 -0.03,-0.1 -0.07,-0.13 -0.04,-0.03 -0.08,-0.05 -0.13,-0.05 -0.04,0 -0.07,0.01 -0.1,0.02 -0.03,0.01 -0.05,0.03 -0.07,0.05 -0.02,0.02 -0.03,0.05 -0.03,0.09 0,0.04 0.01,0.07 0.03,0.09 0.02,0.02 0.05,0.04 0.09,0.06 0.04,0.01 0.08,0.03 0.12,0.04 0.04,0.01 0.09,0.02 0.13,0.04 0.04,0.01 0.08,0.03 0.12,0.06 0.04,0.02 0.06,0.05 0.09,0.09 0.02,0.04 0.03,0.09 0.03,0.15 0,0.06 -0.01,0.11 -0.04,0.16 -0.03,0.05 -0.07,0.09 -0.13,0.12 -0.06,0.03 -0.13,0.05 -0.21,0.05z"/>
  <polygon id="_2" class="fil0" points="2.25,3.14 3.03,3.14 3.03,3.28 2.73,3.28 2.73,4.27 2.55,4.27 2.55,3.28 2.25,3.28 "/>
  <path id="_3" class="fil0" d="M3.46 4.27l0 -1.13 0.37 0c0.12,0 0.23,0.02 0.32,0.07 0.09,0.05 0.16,0.11 0.21,0.2 0.05,0.09 0.07,0.19 0.07,0.3 0,0.12 -0.02,0.22 -0.07,0.3 -0.05,0.08 -0.12,0.15 -0.21,0.19 -0.09,0.05 -0.2,0.07 -0.32,0.07l-0.37 0zm0.18 -0.15l0.19 0c0.14,0 0.24,-0.04 0.31,-0.11 0.07,-0.07 0.11,-0.18 0.11,-0.31 0,-0.13 -0.04,-0.23 -0.11,-0.31 -0.07,-0.08 -0.18,-0.11 -0.31,-0.11l-0.19 0 0 0.84z"/>
  <path class="fil0" d="M17.61 4.27l0 -0.13c0.04,-0.03 0.07,-0.06 0.1,-0.09 0.03,-0.03 0.06,-0.05 0.08,-0.07 0.02,-0.02 0.05,-0.05 0.08,-0.07 0.03,-0.02 0.05,-0.05 0.08,-0.08 0.03,-0.03 0.06,-0.06 0.09,-0.1 0.03,-0.03 0.06,-0.07 0.08,-0.1 0.02,-0.03 0.04,-0.07 0.05,-0.1 0.01,-0.03 0.02,-0.07 0.02,-0.1 0,-0.07 -0.02,-0.12 -0.05,-0.16 -0.03,-0.04 -0.08,-0.06 -0.15,-0.06 -0.05,0 -0.08,0.01 -0.12,0.03 -0.03,0.02 -0.06,0.05 -0.07,0.09 -0.02,0.04 -0.03,0.08 -0.03,0.13l-0.16 -0.02c0,-0.08 0.02,-0.14 0.06,-0.2 0.03,-0.06 0.08,-0.1 0.14,-0.13 0.06,-0.03 0.12,-0.05 0.19,-0.05 0.08,0 0.15,0.01 0.2,0.04 0.06,0.03 0.1,0.07 0.13,0.12 0.03,0.05 0.04,0.12 0.04,0.19 0,0.06 -0.01,0.11 -0.03,0.16 -0.02,0.05 -0.05,0.1 -0.08,0.15 -0.03,0.05 -0.07,0.09 -0.11,0.14 -0.04,0.05 -0.09,0.09 -0.13,0.13 -0.05,0.04 -0.09,0.08 -0.14,0.12l0.53 0 0 0.15 -0.79 0z"/>
  <path id="_1_0" class="fil0" d="M19.22 4.28c-0.1,0 -0.18,-0.03 -0.24,-0.08 -0.06,-0.05 -0.11,-0.13 -0.14,-0.22 -0.03,-0.09 -0.04,-0.2 -0.04,-0.31 0,-0.11 0.01,-0.22 0.04,-0.31 0.03,-0.09 0.07,-0.16 0.14,-0.22 0.06,-0.05 0.14,-0.08 0.24,-0.08 0.1,0 0.18,0.03 0.24,0.08 0.06,0.05 0.11,0.13 0.14,0.22 0.03,0.09 0.04,0.19 0.04,0.31 0,0.11 -0.01,0.22 -0.04,0.31 -0.03,0.09 -0.07,0.17 -0.14,0.22 -0.06,0.05 -0.14,0.08 -0.24,0.08zm0 -0.16c0.06,0 0.11,-0.02 0.15,-0.06 0.04,-0.04 0.06,-0.1 0.08,-0.17 0.01,-0.07 0.02,-0.14 0.02,-0.22 0,-0.06 -0,-0.11 -0.01,-0.16 -0.01,-0.05 -0.02,-0.1 -0.04,-0.14 -0.02,-0.04 -0.04,-0.07 -0.08,-0.1 -0.03,-0.02 -0.07,-0.04 -0.12,-0.04 -0.05,0 -0.09,0.01 -0.12,0.04 -0.03,0.02 -0.06,0.06 -0.08,0.1 -0.02,0.04 -0.03,0.09 -0.04,0.14 -0.01,0.05 -0.01,0.11 -0.01,0.16 0,0.08 0.01,0.15 0.02,0.22 0.02,0.07 0.04,0.12 0.08,0.17 0.04,0.04 0.08,0.06 0.15,0.06z"/>
  <path id="_2_1" class="fil0" d="M20.03 4.27l0 -0.13c0.04,-0.03 0.07,-0.06 0.1,-0.09 0.03,-0.03 0.06,-0.05 0.08,-0.07 0.02,-0.02 0.05,-0.05 0.08,-0.07 0.03,-0.02 0.05,-0.05 0.08,-0.08 0.03,-0.03 0.06,-0.06 0.09,-0.1 0.03,-0.03 0.06,-0.07 0.08,-0.1 0.02,-0.03 0.04,-0.07 0.05,-0.1 0.01,-0.03 0.02,-0.07 0.02,-0.1 0,-0.07 -0.02,-0.12 -0.05,-0.16 -0.03,-0.04 -0.08,-0.06 -0.15,-0.06 -0.05,0 -0.08,0.01 -0.12,0.03 -0.03,0.02 -0.06,0.05 -0.07,0.09 -0.02,0.04 -0.03,0.08 -0.03,0.13l-0.16 -0.02c0,-0.08 0.02,-0.14 0.06,-0.2 0.03,-0.06 0.08,-0.1 0.14,-0.13 0.06,-0.03 0.12,-0.05 0.19,-0.05 0.08,0 0.15,0.01 0.2,0.04 0.06,0.03 0.1,0.07 0.13,0.12 0.03,0.05 0.04,0.12 0.04,0.19 0,0.06 -0.01,0.11 -0.03,0.16 -0.02,0.05 -0.05,0.1 -0.08,0.15 -0.03,0.05 -0.07,0.09 -0.11,0.14 -0.04,0.05 -0.09,0.09 -0.13,0.13 -0.05,0.04 -0.09,0.08 -0.14,0.12l0.52 0 0 0.15 -0.79 0z"/>
  <path id="_3_2" class="fil0" d="M21.79 4.27l-0 -0.26 -0.59 -0 0 -0.13 0.55 -0.79 0.22 0 0 0.77 0.15 0 0 0.15 -0.15 -0 0 0.27 -0.17 0zm-0.39 -0.42l0.4 0 -0 -0.59 -0.39 0.59z"/>
  <path class="fil1" d="M14.61 4.82c0,0.67 -0.28,1.21 -0.72,1.55 -0.52,0.39 -1.32,0.49 -1.9,0.29 -0.34,0.4 -0.83,0.6 -1.33,0.66 -1.55,0.18 -3.14,-0.7 -3.14,-2.41 0,-1.12 0.75,-2 1.78,-2.27 0.26,-0.07 0.49,-0.08 0.75,-0.08l0 -0.84c-0.01,-0.54 -0.27,-1.03 -0.69,-1.35l-0.16 -0.12c-0.02,-0.02 -0.04,-0.05 -0.04,-0.08 0,-0.06 0.05,-0.1 0.1,-0.1 0.05,0 0.08,0.04 0.12,0.06 0.09,0.08 0.2,0.15 0.31,0.21 0.24,0.13 0.56,0.22 0.83,0.22 0.47,-0.02 0.72,-0.16 1.14,-0.33 0.43,-0.17 0.93,-0.32 1.48,-0.14 1.24,0.4 1.45,2.2 0.12,2.94 0.76,0.28 1.35,0.95 1.35,1.81zm-4.13 0.6c0.23,0.06 0.42,0.18 0.6,0.33l0 -1.64c-0,-0 -0,-0 -0.01,-0 -0.12,0 -0.21,0.09 -0.21,0.21l0 0.11 -0.82 0.68 0 -2.22c-0.74,0.33 -1.31,1.19 -1.31,2.01 0,0.8 0.46,1.53 1.12,1.9 0.54,0.3 1.44,0.36 1.93,-0.24 -0.25,-0.11 -0.5,-0.31 -0.7,-0.49 -0.1,-0.09 -0.2,-0.18 -0.31,-0.26 -0.17,-0.13 -0.33,-0.2 -0.54,-0.21 -0.31,-0.03 -0.5,0.06 -0.77,0.21 -0.05,0.03 -0.11,0.01 -0.14,-0.04 -0.02,-0.05 -0.01,-0.1 0.04,-0.13 0.16,-0.09 0.32,-0.18 0.53,-0.22 0.18,-0.03 0.41,-0.03 0.58,0.01zm0.8 0.5c0.19,0.16 0.4,0.34 0.63,0.43 0.24,-0.49 0.11,-1.11 -0.29,-1.47l0.88 0c0.08,0.54 -0.03,1.08 -0.34,1.53 0.11,0.01 0.22,-0 0.32,-0.03 1.2,-0.32 1.26,-2.34 0.31,-3.05 -0.32,-0.24 -0.74,-0.38 -1.18,-0.47 -0.11,-0.02 -0.22,-0.04 -0.34,-0.06l0 3.12zm-0.42 -2.13l0 -1.03c0.07,0 0.15,0.01 0.22,0.01l0 1.23c-0,0 -0,0 -0.01,0 -0.12,0 -0.21,-0.09 -0.21,-0.21zm0 -1.17l0 -1.77c0.08,-0.01 0.15,-0.03 0.22,-0.06l0 1.85c-0.07,-0.01 -0.15,-0.02 -0.22,-0.03zm0.42 0.06l0 -1.97c0.46,-0.27 1.69,-0.3 1.82,0.68 0.07,0.57 -0.14,1.19 -0.73,1.36 -0.25,0.07 -0.44,0.03 -0.68,-0.01 -0.11,-0.02 -0.25,-0.04 -0.41,-0.06z"/>
 </g>
</svg>
